<svg width="10" height="10" viewBox="0 0 10 10" fill="none" xmlns="http://www.w3.org/2000/svg">
<path d="M4.6099 0.283442C4.73269 -0.0944557 5.26731 -0.0944562 5.3901 0.283442L6.28926 3.05077C6.34417 3.21977 6.50166 3.33419 6.67936 3.33419H9.5891C9.98644 3.33419 10.1516 3.84265 9.83019 4.0762L7.47616 5.78651C7.3324 5.89095 7.27225 6.07609 7.32716 6.2451L8.22632 9.01242C8.3491 9.39032 7.91658 9.70456 7.59512 9.47101L5.24109 7.76071C5.09733 7.65626 4.90267 7.65626 4.75891 7.76071L2.40488 9.47101C2.08342 9.70456 1.6509 9.39032 1.77368 9.01242L2.67284 6.2451C2.72775 6.07609 2.6676 5.89096 2.52384 5.78651L0.169809 4.0762C-0.15165 3.84265 0.013558 3.33419 0.410903 3.33419H3.32064C3.49834 3.33419 3.65583 3.21977 3.71074 3.05077L4.6099 0.283442Z" fill="#FCBC00"/>
</svg>
