<svg width="16" height="16" viewBox="0 0 16 16" fill="none" xmlns="http://www.w3.org/2000/svg">
<g clip-path="url(#clip0_0_14)">
<path d="M10.244 2.29199L12.3847 5.99999H14.6667V7.33333H13.8887L13.384 13.3887C13.3701 13.5553 13.2942 13.7106 13.1712 13.8238C13.0482 13.937 12.8872 13.9999 12.72 14H3.28C3.11283 13.9999 2.9518 13.937 2.82882 13.8238C2.70583 13.7106 2.62988 13.5553 2.616 13.3887L2.11067 7.33333H1.33334V5.99999H3.61467L5.756 2.29199L6.91067 2.95866L5.15467 5.99999H10.8447L9.08934 2.95866L10.244 2.29199ZM12.5507 7.33333H3.44867L3.89334 12.6667H12.106L12.5507 7.33333ZM8.66667 8.66666V11.3333H7.33334V8.66666H8.66667ZM6 8.66666V11.3333H4.66667V8.66666H6ZM11.3333 8.66666V11.3333H10V8.66666H11.3333Z" fill="#ECECEC"/>
</g>
<defs>
<clipPath id="clip0_0_14">
<rect width="16" height="16" fill="white"/>
</clipPath>
</defs>
</svg>
