<svg width="16" height="16" viewBox="0 0 16 16" fill="none" xmlns="http://www.w3.org/2000/svg">
<g clip-path="url(#clip0_53_2059)">
<path d="M10.244 2.29199L12.3847 5.99999H14.6667V7.33333H13.8887L13.384 13.3887C13.3701 13.5553 13.2942 13.7106 13.1712 13.8238C13.0482 13.937 12.8872 13.9999 12.72 14H3.27999C3.11283 13.9999 2.95179 13.937 2.82881 13.8238C2.70583 13.7106 2.62987 13.5553 2.61599 13.3887L2.11066 7.33333H1.33333V5.99999H3.61466L5.75599 2.29199L6.91066 2.95866L5.15466 5.99999H10.8447L9.08933 2.95866L10.244 2.29199ZM12.5507 7.33333H3.44866L3.89333 12.6667H12.106L12.5507 7.33333ZM8.66666 8.66666V11.3333H7.33333V8.66666H8.66666ZM6 8.66666V11.3333H4.66666V8.66666H6ZM11.3333 8.66666V11.3333H10V8.66666H11.3333Z" fill="#ECECEC"/>
</g>
<defs>
<clipPath id="clip0_53_2059">
<rect width="16" height="16" fill="white"/>
</clipPath>
</defs>
</svg>
