<svg width="10" height="10" viewBox="0 0 10 10" fill="none" xmlns="http://www.w3.org/2000/svg">
<path d="M4.60991 0.283314C4.73269 -0.0945798 5.26731 -0.0945803 5.39009 0.283313L6.28924 3.05061C6.34415 3.21961 6.50164 3.33403 6.67934 3.33403H9.58904C9.98639 3.33403 10.1516 3.84248 9.83014 4.07603L7.47613 5.78632C7.33237 5.89076 7.27222 6.0759 7.32713 6.2449L8.22628 9.01219C8.34906 9.39009 7.91655 9.70433 7.59509 9.47078L5.24109 7.7605C5.09733 7.65605 4.90267 7.65605 4.75891 7.7605L2.40491 9.47078C2.08345 9.70433 1.65093 9.39009 1.77372 9.0122L2.67287 6.2449C2.72778 6.0759 2.66763 5.89076 2.52387 5.78632L0.169864 4.07603C-0.151591 3.84248 0.0136146 3.33403 0.410955 3.33403H3.32066C3.49836 3.33403 3.65585 3.21961 3.71076 3.05061L4.60991 0.283314Z" fill="#FCBC00"/>
</svg>
