<svg width="156" height="91" viewBox="0 0 156 91" fill="none" xmlns="http://www.w3.org/2000/svg">
<path d="M17.4837 37.3944C15.0331 37.3944 12.7397 37.0016 10.6033 36.2162C8.46694 35.4151 6.60547 34.2605 5.0189 32.7525C3.46375 31.2759 2.23848 29.4537 1.34309 27.2859C0.447695 25.1024 0 22.7068 0 20.0992C0 17.5073 0.447695 15.1117 1.34309 12.9125C2.25419 10.6976 3.52658 8.78112 5.16028 7.16313C6.76256 5.57656 8.68686 4.35129 10.9332 3.48731C13.1795 2.60763 15.5829 2.16779 18.1434 2.16779C19.9971 2.16779 21.6857 2.39556 23.2095 2.85111C24.7332 3.29095 26.0213 3.79363 27.0738 4.35914L28.5347 3.06318H30.5847L30.7967 15.2688H28.7232C27.5451 11.5458 26.1313 8.81253 24.4819 7.06888C22.8325 5.32522 20.8218 4.45339 18.4498 4.45339C15.4965 4.45339 13.2502 5.75721 11.7108 8.36484C10.1713 10.9568 9.40161 14.6012 9.40161 19.298C9.40161 21.9528 9.6608 24.2227 10.1792 26.1077C10.7133 27.977 11.4045 29.4851 12.2527 30.6318C13.1638 31.8257 14.2399 32.7053 15.4808 33.2708C16.7218 33.8206 18.0963 34.0955 19.6044 34.0955C21.8036 34.0955 23.7593 33.4986 25.4715 32.3048C27.1995 31.1109 28.7703 29.3044 30.1841 26.8853L32.2105 28.1106C31.535 29.4929 30.7653 30.7339 29.9013 31.8335C29.0374 32.9174 28.0399 33.8521 26.9089 34.6375C25.6679 35.5015 24.2934 36.1769 22.7853 36.6639C21.293 37.1509 19.5258 37.3944 17.4837 37.3944Z" fill="white"/>
<path d="M58.2947 15.905C59.4571 16.9889 60.3446 18.2848 60.9573 19.7929C61.5699 21.3009 61.8762 22.9346 61.8762 24.6939C61.8762 26.4376 61.5699 28.087 60.9573 29.6422C60.3603 31.1816 59.4807 32.5011 58.3182 33.6007C57.0772 34.7789 55.5928 35.6821 53.8648 36.3105C52.1526 36.9388 50.189 37.253 47.9741 37.253C46.0577 37.253 44.2904 36.9781 42.6724 36.4283C41.0702 35.8785 39.6485 35.0538 38.4076 33.9542C37.2137 32.9017 36.2712 31.6057 35.58 30.0663C34.8888 28.5111 34.5432 26.7753 34.5432 24.8589C34.5432 22.9738 34.8417 21.3009 35.4386 19.84C36.0513 18.3634 36.9624 17.0517 38.1719 15.905C39.3344 14.8054 40.7639 13.9571 42.4604 13.3602C44.1726 12.7475 46.0812 12.4412 48.1862 12.4412C50.3854 12.4412 52.3175 12.7475 53.9827 13.3602C55.6635 13.9571 57.1008 14.8054 58.2947 15.905ZM52.2626 32.2341C52.6081 31.3544 52.8595 30.2862 53.0166 29.0295C53.1894 27.7728 53.2758 26.3119 53.2758 24.6468C53.2758 23.5472 53.1972 22.2905 53.0401 20.8767C52.883 19.463 52.6474 18.3477 52.3332 17.5308C51.9562 16.5412 51.43 15.7636 50.7545 15.1981C50.0948 14.6326 49.2544 14.3498 48.2333 14.3498C47.118 14.3498 46.2226 14.6561 45.5471 15.2688C44.8874 15.8814 44.3768 16.6747 44.0155 17.6486C43.6857 18.544 43.4579 19.5965 43.3322 20.8061C43.2065 21.9999 43.1437 23.2487 43.1437 24.5526C43.1437 26.2648 43.1987 27.6864 43.3086 28.8175C43.4186 29.9328 43.6857 31.0559 44.1098 32.1869C44.4711 33.1609 44.9895 33.9306 45.6649 34.4961C46.3404 35.0616 47.1965 35.3444 48.2333 35.3444C49.1758 35.3444 49.9848 35.0852 50.6603 34.5668C51.3358 34.0327 51.8698 33.2551 52.2626 32.2341Z" fill="white"/>
<path d="M87.2064 4.0057C87.2064 4.39841 87.1435 4.8304 87.0179 5.30166C86.8922 5.77292 86.688 6.17349 86.4052 6.50337C86.0753 6.89608 85.7062 7.19455 85.2978 7.39876C84.8893 7.60297 84.2767 7.70508 83.4599 7.70508C82.2189 7.70508 81.245 7.27309 80.5381 6.40911C79.8312 5.54514 79.0772 4.1078 78.276 2.0971C77.6477 2.36415 77.1371 3.05533 76.7444 4.17064C76.3517 5.28595 76.1554 7.68151 76.1554 11.3573V13.2188H82.6587V15.7636H76.2025V31.9984C76.2025 32.6111 76.3439 33.0902 76.6266 33.4358C76.9094 33.7657 77.2785 34.0091 77.7341 34.1662C78.1111 34.2919 78.6059 34.4176 79.2185 34.5432C79.8312 34.6532 80.381 34.7317 80.8679 34.7789V36.499H64.963V34.7789C65.3714 34.7475 65.7641 34.7082 66.1411 34.6611C66.5338 34.6139 66.8794 34.5354 67.1779 34.4254C67.6806 34.2369 68.0183 33.9699 68.1911 33.6243C68.3796 33.263 68.4738 32.7917 68.4738 32.2105V15.7636H63.6906V13.2188H68.4738C68.4738 11.538 68.7173 9.91214 69.2043 8.34127C69.6913 6.7547 70.4453 5.34093 71.4663 4.09995C72.456 2.87468 73.7598 1.88503 75.3778 1.13102C76.9958 0.377007 78.8965 0 81.08 0C83.0279 0 84.5359 0.369152 85.6041 1.10746C86.6723 1.84576 87.2064 2.81184 87.2064 4.0057Z" fill="white"/>
<path d="M106.198 4.0057C106.198 4.39841 106.135 4.8304 106.01 5.30166C105.884 5.77292 105.68 6.17349 105.397 6.50337C105.067 6.89608 104.698 7.19455 104.289 7.39876C103.881 7.60297 103.268 7.70508 102.452 7.70508C101.211 7.70508 100.237 7.27309 99.5298 6.40911C98.8229 5.54514 98.0689 4.1078 97.2677 2.0971C96.6394 2.36415 96.1289 3.05533 95.7361 4.17064C95.3434 5.28595 95.1471 7.68151 95.1471 11.3573V13.2188H101.65V15.7636H95.1942V31.9984C95.1942 32.6111 95.3356 33.0902 95.6183 33.4358C95.9011 33.7657 96.2702 34.0091 96.7258 34.1662C97.1028 34.2919 97.5976 34.4176 98.2103 34.5432C98.8229 34.6532 99.3727 34.7317 99.8597 34.7789V36.499H83.9547V34.7789C84.3631 34.7475 84.7558 34.7082 85.1328 34.6611C85.5255 34.6139 85.8711 34.5354 86.1696 34.4254C86.6723 34.2369 87.01 33.9699 87.1828 33.6243C87.3713 33.263 87.4656 32.7917 87.4656 32.2105V15.7636H82.6823V13.2188H87.4656C87.4656 11.538 87.709 9.91214 88.196 8.34127C88.683 6.7547 89.437 5.34093 90.4581 4.09995C91.4477 2.87468 92.7515 1.88503 94.3695 1.13102C95.9875 0.377007 97.8882 0 100.072 0C102.02 0 103.528 0.369152 104.596 1.10746C105.664 1.84576 106.198 2.81184 106.198 4.0057Z" fill="white"/>
<path d="M128.229 30.8674C127.68 31.7628 127.012 32.6111 126.227 33.4122C125.457 34.1977 124.577 34.8731 123.588 35.4386C122.535 36.0356 121.467 36.4833 120.383 36.7817C119.315 37.0959 118.082 37.253 116.684 37.253C114.359 37.253 112.348 36.9231 110.651 36.2633C108.971 35.6036 107.58 34.716 106.481 33.6007C105.381 32.4854 104.557 31.1737 104.007 29.6657C103.473 28.142 103.206 26.4926 103.206 24.7175C103.206 23.1152 103.496 21.5836 104.077 20.1227C104.674 18.6461 105.515 17.3345 106.599 16.1877C107.667 15.0724 109.01 14.1692 110.628 13.478C112.262 12.7868 114.084 12.4412 116.095 12.4412C118.294 12.4412 120.1 12.7083 121.514 13.2424C122.928 13.7765 124.098 14.5148 125.025 15.4573C125.92 16.3527 126.572 17.413 126.981 18.6383C127.389 19.8478 127.593 21.1202 127.593 22.4555V23.9871H111.665C111.665 27.2073 112.285 29.6579 113.526 31.3387C114.767 33.0195 116.739 33.8599 119.44 33.8599C120.917 33.8599 122.244 33.4593 123.423 32.6582C124.601 31.8414 125.606 30.8124 126.439 29.5715L128.229 30.8674ZM119.228 21.9135C119.228 20.971 119.181 20.0049 119.087 19.0153C118.993 18.0256 118.828 17.2166 118.592 16.5883C118.325 15.85 117.956 15.2923 117.485 14.9153C117.029 14.5383 116.448 14.3498 115.741 14.3498C114.532 14.3498 113.565 14.9625 112.843 16.1877C112.12 17.413 111.728 19.353 111.665 22.0078L119.228 21.9135Z" fill="white"/>
<path d="M155.845 30.8674C155.295 31.7628 154.628 32.6111 153.842 33.4122C153.073 34.1977 152.193 34.8731 151.203 35.4386C150.151 36.0356 149.083 36.4833 147.999 36.7817C146.931 37.0959 145.697 37.253 144.299 37.253C141.974 37.253 139.964 36.9231 138.267 36.2633C136.586 35.6036 135.196 34.716 134.097 33.6007C132.997 32.4854 132.172 31.1737 131.622 29.6657C131.088 28.142 130.821 26.4926 130.821 24.7175C130.821 23.1152 131.112 21.5836 131.693 20.1227C132.29 18.6461 133.131 17.3345 134.214 16.1877C135.283 15.0724 136.626 14.1692 138.244 13.478C139.877 12.7868 141.7 12.4412 143.71 12.4412C145.909 12.4412 147.716 12.7083 149.13 13.2424C150.544 13.7765 151.714 14.5148 152.641 15.4573C153.536 16.3527 154.188 17.413 154.596 18.6383C155.005 19.8478 155.209 21.1202 155.209 22.4555V23.9871H139.28C139.28 27.2073 139.901 29.6579 141.142 31.3387C142.383 33.0195 144.354 33.8599 147.056 33.8599C148.533 33.8599 149.86 33.4593 151.038 32.6582C152.216 31.8414 153.222 30.8124 154.054 29.5715L155.845 30.8674ZM146.844 21.9135C146.844 20.971 146.797 20.0049 146.703 19.0153C146.608 18.0256 146.444 17.2166 146.208 16.5883C145.941 15.85 145.572 15.2923 145.1 14.9153C144.645 14.5383 144.064 14.3498 143.357 14.3498C142.147 14.3498 141.181 14.9625 140.459 16.1877C139.736 17.413 139.343 19.353 139.28 22.0078L146.844 21.9135Z" fill="white"/>
<path d="M80.0511 55.043C81.2135 56.1269 82.1011 57.4228 82.7137 58.9309C83.3263 60.4389 83.6327 62.0726 83.6327 63.832C83.6327 65.5756 83.3263 67.225 82.7137 68.7802C82.1168 70.3196 81.2371 71.6391 80.0747 72.7387C78.8337 73.9169 77.3492 74.8201 75.6213 75.4485C73.909 76.0768 71.9455 76.391 69.7305 76.391C67.8141 76.391 66.0469 76.1161 64.4289 75.5663C62.8266 75.0165 61.405 74.1918 60.164 73.0922C58.9701 72.0397 58.0276 70.7437 57.3364 69.2043C56.6453 67.6491 56.2997 65.9133 56.2997 63.9969C56.2997 62.1119 56.5981 60.4389 57.1951 58.978C57.8077 57.5014 58.7188 56.1897 59.9284 55.043C61.0908 53.9434 62.5203 53.0951 64.2168 52.4982C65.9291 51.8856 67.8376 51.5792 69.9426 51.5792C72.1418 51.5792 74.074 51.8856 75.7391 52.4982C77.4199 53.0951 78.8572 53.9434 80.0511 55.043ZM74.019 71.3721C74.3646 70.4924 74.6159 69.4242 74.773 68.1675C74.9458 66.9108 75.0322 65.4499 75.0322 63.7848C75.0322 62.6852 74.9537 61.4285 74.7966 60.0148C74.6395 58.601 74.4038 57.4857 74.0897 56.6688C73.7127 55.6792 73.1864 54.9016 72.511 54.3361C71.8512 53.7706 71.0108 53.4878 69.9897 53.4878C68.8744 53.4878 67.979 53.7941 67.3036 54.4068C66.6438 55.0194 66.1333 55.8127 65.772 56.7866C65.4421 57.682 65.2143 58.7345 65.0886 59.9441C64.963 61.1379 64.9001 62.3868 64.9001 63.6906C64.9001 65.4028 64.9551 66.8244 65.0651 67.9555C65.175 69.0708 65.4421 70.1939 65.8662 71.325C66.2275 72.2989 66.7459 73.0686 67.4214 73.6341C68.0968 74.1996 68.953 74.4824 69.9897 74.4824C70.9322 74.4824 71.7412 74.2232 72.4167 73.7048C73.0922 73.1707 73.6263 72.3931 74.019 71.3721Z" fill="white"/>
<path d="M85.1407 82.4467C84.8265 83.3106 84.4024 84.1982 83.8683 85.1093C83.3499 86.0204 82.7687 86.8294 82.1246 87.5363C81.3235 88.4159 80.4517 89.1228 79.5091 89.6569C78.5823 90.1753 77.5927 90.4345 76.5402 90.4345C75.3464 90.4345 74.2546 90.2303 73.265 89.8219C72.291 89.3977 71.3485 88.9186 70.4374 88.3845C69.7148 87.9447 68.8823 87.4891 67.9398 87.0179C66.9972 86.5466 66.1568 86.311 65.4185 86.311C64.3818 86.311 63.4785 86.688 62.7088 87.442C61.9391 88.1803 61.2008 89.3663 60.4939 91L58.0433 90.0104C58.279 89.3192 58.6481 88.5102 59.1508 87.5834C59.6692 86.6566 60.3054 85.769 61.0594 84.9208C61.7663 84.1196 62.5988 83.4363 63.5571 82.8708C64.531 82.3053 65.5599 82.0225 66.6438 82.0225C67.9319 82.0225 69.0708 82.2503 70.0604 82.7059C71.0658 83.1457 71.9769 83.6091 72.7937 84.0961C73.6263 84.5987 74.4431 85.07 75.2443 85.5098C76.0611 85.934 76.9015 86.146 77.7655 86.146C78.8651 86.146 79.7998 85.7376 80.5695 84.9208C81.3392 84.0882 82.0461 82.9336 82.6901 81.457L85.1407 82.4467Z" fill="white"/>
<path d="M45.3979 56.1033C44.9581 56.1504 44.3297 56.2368 43.5129 56.3625C42.696 56.4882 41.9577 56.7945 41.2979 57.2815C40.7167 57.7056 40.3004 58.436 40.0491 59.4728C39.8135 60.4939 39.6957 62.0019 39.6957 63.9969V87.8897H35.5015L14.6718 62.0412V77.7341C14.6718 79.6819 14.7975 81.1664 15.0489 82.1875C15.3159 83.1928 15.74 83.9311 16.3212 84.4024C16.7454 84.748 17.4209 85.0543 18.3477 85.3213C19.2745 85.5884 20.0128 85.769 20.5626 85.8633V87.7012H6.18919V85.8633C6.80183 85.8162 7.50086 85.7062 8.28629 85.5334C9.08743 85.3449 9.75505 85.0621 10.2891 84.6851C10.9018 84.2296 11.3181 83.5463 11.538 82.6352C11.7736 81.7084 11.8914 80.1611 11.8914 77.9933V62.159C11.8914 61.3736 11.7658 60.6352 11.5144 59.9441C11.2788 59.2372 10.9018 58.6324 10.3834 58.1297C9.83359 57.5956 9.19739 57.1794 8.4748 56.8809C7.76791 56.5667 6.95892 56.3232 6.04782 56.1504V54.2654H18.6304L36.9152 76.8858V64.2325C36.9152 62.2218 36.7817 60.7295 36.5147 59.7556C36.2476 58.7659 35.8235 58.0355 35.2423 57.5642C34.7867 57.2029 34.1113 56.8966 33.2159 56.6453C32.3205 56.3782 31.5979 56.1976 31.0481 56.1033V54.2654H45.3979V56.1033Z" fill="white"/>
<path d="M150.988 56.1504C150.501 56.1976 150.014 56.3075 149.527 56.4803C149.04 56.6374 148.561 56.8416 148.09 57.093C147.367 57.5014 146.849 57.9491 146.535 58.436C146.236 58.923 145.961 59.5121 145.71 60.2033C144.846 62.591 143.511 66.416 141.704 71.6784C139.913 76.9408 138.044 82.4074 136.096 88.0782H131.36L122.524 63.2193L114.56 88.0782H109.824C107.2 80.4438 105.19 74.5688 103.792 70.4531C102.393 66.3218 101.215 62.858 100.257 60.0619C99.9586 59.2136 99.6209 58.601 99.2439 58.224C98.8669 57.8313 98.3799 57.4385 97.783 57.0458C97.3588 56.7631 96.9033 56.5589 96.4163 56.4332C95.9451 56.2918 95.3953 56.1819 94.7669 56.1033V54.2654H112.604V56.0562C111.552 56.1819 110.766 56.3075 110.248 56.4332C109.729 56.5432 109.321 56.661 109.022 56.7866C108.74 56.9123 108.567 57.0458 108.504 57.1872C108.441 57.3286 108.41 57.4543 108.41 57.5642C108.41 57.7841 108.433 57.9962 108.481 58.2004C108.543 58.4046 108.606 58.6403 108.669 58.9073C109.046 60.1326 109.808 62.4574 110.955 65.8819C112.101 69.3064 113.515 73.5556 115.196 78.6295L122.807 54.2654H127.802L136.638 79.3835C137.942 75.3464 138.979 72.0476 139.749 69.4871C140.534 66.9265 141.194 64.7352 141.728 62.913C142.042 61.7977 142.293 60.863 142.482 60.109C142.67 59.355 142.765 58.7031 142.765 58.1533C142.765 57.8234 142.608 57.5407 142.293 57.305C141.995 57.0694 141.586 56.8652 141.068 56.6924C140.628 56.551 140.055 56.441 139.348 56.3625C138.657 56.2683 138.052 56.1976 137.534 56.1504V54.2654H150.988V56.1504Z" fill="white"/>
</svg>
