<svg width="10" height="10" viewBox="0 0 10 10" fill="none" xmlns="http://www.w3.org/2000/svg">
<path d="M4.6099 0.283317C4.73269 -0.0945809 5.26731 -0.0945813 5.3901 0.283317L6.28926 3.05064C6.34417 3.21964 6.50166 3.33407 6.67936 3.33407H9.5891C9.98644 3.33407 10.1516 3.84253 9.83019 4.07608L7.47616 5.78638C7.3324 5.89083 7.27225 6.07597 7.32716 6.24497L8.22632 9.0123C8.3491 9.39019 7.91658 9.70444 7.59512 9.47089L5.24109 7.76058C5.09733 7.65614 4.90267 7.65614 4.75891 7.76058L2.40488 9.47089C2.08342 9.70444 1.6509 9.3902 1.77368 9.0123L2.67284 6.24497C2.72775 6.07597 2.6676 5.89083 2.52384 5.78638L0.169809 4.07608C-0.15165 3.84253 0.013558 3.33407 0.410903 3.33407H3.32064C3.49834 3.33407 3.65583 3.21964 3.71074 3.05064L4.6099 0.283317Z" fill="#FCBC00"/>
</svg>
