<svg width="10" height="10" viewBox="0 0 10 10" fill="none" xmlns="http://www.w3.org/2000/svg">
<path d="M4.60991 0.283439C4.73269 -0.0944545 5.26731 -0.094455 5.39009 0.283438L6.28924 3.05073C6.34415 3.21973 6.50164 3.33415 6.67934 3.33415H9.58904C9.98638 3.33415 10.1516 3.8426 9.83013 4.07615L7.47613 5.78643C7.33237 5.89088 7.27222 6.07602 7.32713 6.24502L8.22628 9.01231C8.34906 9.3902 7.91655 9.70444 7.59509 9.47089L5.24109 7.76061C5.09733 7.65616 4.90267 7.65616 4.75891 7.76061L2.40491 9.47089C2.08345 9.70444 1.65094 9.3902 1.77372 9.01231L2.67287 6.24502C2.72778 6.07602 2.66763 5.89088 2.52387 5.78643L0.16987 4.07615C-0.151585 3.8426 0.0136205 3.33415 0.410961 3.33415H3.32066C3.49836 3.33415 3.65585 3.21973 3.71076 3.05073L4.60991 0.283439Z" fill="#FCBC00"/>
</svg>
