<svg width="10" height="10" viewBox="0 0 10 10" fill="none" xmlns="http://www.w3.org/2000/svg">
<path d="M4.60991 0.283313C4.73269 -0.0945797 5.26731 -0.0945801 5.39009 0.283313L6.28924 3.05061C6.34415 3.2196 6.50164 3.33403 6.67934 3.33403H9.58904C9.98638 3.33403 10.1516 3.84248 9.83013 4.07603L7.47613 5.78631C7.33237 5.89076 7.27222 6.07589 7.32713 6.24489L8.22628 9.01218C8.34906 9.39008 7.91655 9.70432 7.59509 9.47077L5.24109 7.76049C5.09733 7.65604 4.90267 7.65604 4.75891 7.76049L2.40491 9.47077C2.08345 9.70432 1.65094 9.39008 1.77372 9.01219L2.67287 6.24489C2.72778 6.07589 2.66763 5.89076 2.52387 5.78631L0.16987 4.07603C-0.151585 3.84248 0.0136205 3.33403 0.410961 3.33403H3.32066C3.49836 3.33403 3.65585 3.2196 3.71076 3.05061L4.60991 0.283313Z" fill="#FCBC00"/>
</svg>
