<svg width="208" height="183" viewBox="0 0 208 183" fill="none" xmlns="http://www.w3.org/2000/svg">
<path d="M174.789 38.1967C180.812 38.7823 193.41 36.8416 195.619 24.394C197.827 11.9464 203.733 8.49995 206.41 8.33264" stroke="#F3603F" stroke-width="3" stroke-linecap="round"/>
<circle cx="121.303" cy="88.9702" r="60.2185" fill="#FF9314"/>
<g filter="url(#filter0_d_45_1787)">
<circle cx="121.303" cy="88.9703" r="51.6531" stroke="white" stroke-opacity="0.7" stroke-width="2"/>
</g>
<path d="M148.063 75.7961C148.063 77.4358 147.42 79.019 146.25 80.1498L119.051 106.498C117.823 107.629 116.185 108.307 114.489 108.307C112.792 108.307 111.154 107.629 109.985 106.498L96.3558 93.3238C95.1859 92.193 94.5425 90.6099 94.5425 88.9702C94.5425 87.3305 95.2444 85.8039 96.4143 84.6165C97.6426 83.4857 99.2219 82.8638 100.918 82.8072C102.615 82.8072 104.194 83.4292 105.422 84.56L114.489 93.3238L137.184 71.3859C138.412 70.2551 139.991 69.6332 141.688 69.6332C143.384 69.6897 144.963 70.3117 146.192 71.499C147.362 72.6298 148.063 74.1565 148.063 75.7961Z" fill="white"/>
<path d="M166.391 149.189C172.012 150.813 182.881 156.984 181.382 168.676" stroke="#F7B23B" stroke-width="3" stroke-linecap="round" stroke-linejoin="round"/>
<path d="M1.50037 132.688C10.1271 135.937 28.7252 138.267 34.103 121.597M34.103 121.597C34.8873 117.003 34.1031 107.917 24.6921 108.32C22.8994 112.746 22.2719 121.597 34.103 121.597ZM34.103 121.597C38.0243 122.325 47.1441 121.63 52.2529 113.026" stroke="#6E89FA" stroke-width="3" stroke-linecap="round" stroke-linejoin="round"/>
<circle cx="138.4" cy="177.228" r="5.77208" fill="#637BFE"/>
<circle cx="192.967" cy="85.8241" r="5.27208" stroke="#C05EFD"/>
<circle cx="101.341" cy="6.32092" r="6.32092" fill="#53B175"/>
<circle cx="119.288" cy="16.9897" r="3.33814" fill="#F3603F"/>
<circle cx="45.7137" cy="66.0132" r="5.35004" stroke="#F7B23B"/>
<circle cx="59.1508" cy="158.257" r="5.93257" stroke="#53B175"/>
<circle cx="3.07308" cy="3.07308" r="3.07308" transform="matrix(-1 0 0 1 123.526 167.536)" fill="#53B175"/>
<defs>
<filter id="filter0_d_45_1787" x="64.6499" y="35.3171" width="113.306" height="113.306" filterUnits="userSpaceOnUse" color-interpolation-filters="sRGB">
<feFlood flood-opacity="0" result="BackgroundImageFix"/>
<feColorMatrix in="SourceAlpha" type="matrix" values="0 0 0 0 0 0 0 0 0 0 0 0 0 0 0 0 0 0 127 0" result="hardAlpha"/>
<feOffset dy="3"/>
<feGaussianBlur stdDeviation="2"/>
<feColorMatrix type="matrix" values="0 0 0 0 0 0 0 0 0 0 0 0 0 0 0 0 0 0 0.12 0"/>
<feBlend mode="normal" in2="BackgroundImageFix" result="effect1_dropShadow_45_1787"/>
<feBlend mode="normal" in="SourceGraphic" in2="effect1_dropShadow_45_1787" result="shape"/>
</filter>
</defs>
</svg>
