<svg width="14" height="14" viewBox="0 0 14 14" fill="none" xmlns="http://www.w3.org/2000/svg">
<path d="M11.0834 4.08329C11.0834 3.44163 10.5584 2.91663 9.91675 2.91663H8.16675V4.08329H9.91675V5.62913L7.88675 8.16663H5.83341V5.24996H3.50008C2.21091 5.24996 1.16675 6.29413 1.16675 7.58329V9.33329H2.33341C2.33341 10.3016 3.11508 11.0833 4.08341 11.0833C5.05175 11.0833 5.83341 10.3016 5.83341 9.33329H8.44675L11.0834 6.03746V4.08329ZM2.33341 8.16663V7.58329C2.33341 6.94163 2.85841 6.41663 3.50008 6.41663H4.66675V8.16663H2.33341ZM4.08341 9.91663C3.76258 9.91663 3.50008 9.65413 3.50008 9.33329H4.66675C4.66675 9.65413 4.40425 9.91663 4.08341 9.91663Z" fill="#C2C2C2"/>
<path d="M2.91675 3.5H5.83341V4.66667H2.91675V3.5ZM11.0834 7.58333C10.1151 7.58333 9.33341 8.365 9.33341 9.33333C9.33341 10.3017 10.1151 11.0833 11.0834 11.0833C12.0517 11.0833 12.8334 10.3017 12.8334 9.33333C12.8334 8.365 12.0517 7.58333 11.0834 7.58333ZM11.0834 9.91667C10.7626 9.91667 10.5001 9.65417 10.5001 9.33333C10.5001 9.0125 10.7626 8.75 11.0834 8.75C11.4042 8.75 11.6667 9.0125 11.6667 9.33333C11.6667 9.65417 11.4042 9.91667 11.0834 9.91667Z" fill="#C2C2C2"/>
</svg>
