<svg width="38" height="38" viewBox="0 0 38 38" fill="none" xmlns="http://www.w3.org/2000/svg">
<g clip-path="url(#clip0_46_1769)">
<path d="M24.3296 5.44348L29.4137 14.25H34.8334V17.4166H32.9857L31.7871 31.7981C31.7541 32.1937 31.5737 32.5626 31.2816 32.8315C30.9896 33.1004 30.6071 33.2498 30.2101 33.25H7.79008C7.39305 33.2498 7.0106 33.1004 6.71852 32.8315C6.42643 32.5626 6.24603 32.1937 6.21308 31.7981L5.01291 17.4166H3.16675V14.25H8.58491L13.6706 5.44348L16.4129 7.02681L12.2424 14.25H25.7562L21.5872 7.02681L24.3296 5.44348ZM29.8079 17.4166H8.19066L9.24675 30.0833H28.7518L29.8079 17.4166ZM20.5834 20.5833V26.9166H17.4167V20.5833H20.5834ZM14.2501 20.5833V26.9166H11.0834V20.5833H14.2501ZM26.9167 20.5833V26.9166H23.7501V20.5833H26.9167Z" fill="white"/>
</g>
<defs>
<clipPath id="clip0_46_1769">
<rect width="38" height="38" fill="white"/>
</clipPath>
</defs>
</svg>
