<svg width="20" height="20" viewBox="0 0 20 20" fill="none" xmlns="http://www.w3.org/2000/svg">
<path fill-rule="evenodd" clip-rule="evenodd" d="M10.0001 7.9165C11.1508 7.9165 12.0834 8.8491 12.0834 9.99984C12.0834 11.1506 11.1508 12.0832 10.0001 12.0832C8.84935 12.0832 7.91675 11.1506 7.91675 9.99984C7.91675 8.8491 8.84935 7.9165 10.0001 7.9165Z" stroke="white" stroke-width="1.5" stroke-linecap="round" stroke-linejoin="round"/>
<path fill-rule="evenodd" clip-rule="evenodd" d="M16.8068 6.04179V6.04179C16.2371 5.04825 14.9761 4.70828 13.9905 5.28202C13.1332 5.78003 12.0618 5.1569 12.0618 4.16007C12.0618 3.01341 11.1383 2.08325 9.99989 2.08325V2.08325C8.86146 2.08325 7.93797 3.01341 7.93797 4.16007C7.93797 5.1569 6.86655 5.78003 6.01008 5.28202C5.02366 4.70828 3.76264 5.04825 3.19302 6.04179C2.62422 7.03534 2.96174 8.30546 3.94816 8.87837C4.80464 9.3772 4.80464 10.6226 3.94816 11.1215C2.96174 11.6952 2.62422 12.9653 3.19302 13.958C3.76264 14.9516 5.02366 15.2916 6.00926 14.7186H6.01008C6.86655 14.2198 7.93797 14.8429 7.93797 15.8398V15.8398C7.93797 16.9864 8.86146 17.9166 9.99989 17.9166V17.9166C11.1383 17.9166 12.0618 16.9864 12.0618 15.8398V15.8398C12.0618 14.8429 13.1332 14.2198 13.9905 14.7186C14.9761 15.2916 16.2371 14.9516 16.8068 13.958C17.3764 12.9653 17.038 11.6952 16.0524 11.1215H16.0516C15.1951 10.6226 15.1951 9.3772 16.0524 8.87837C17.038 8.30546 17.3764 7.03534 16.8068 6.04179Z" stroke="white" stroke-width="1.5" stroke-linecap="round" stroke-linejoin="round"/>
</svg>
