<svg width="14" height="14" viewBox="0 0 14 14" fill="none" xmlns="http://www.w3.org/2000/svg">
<path d="M12.6282 9.54696L10.6487 9.32095C10.4159 9.29362 10.18 9.31938 9.95864 9.39632C9.73726 9.47326 9.53621 9.59937 9.37058 9.76518L7.93658 11.1992C5.72417 10.074 3.92591 8.27571 2.80071 6.0633L4.24249 4.62151C4.57761 4.28639 4.74127 3.81879 4.68672 3.34339L4.46071 1.37944C4.41653 0.999257 4.23407 0.648599 3.94809 0.39423C3.6621 0.139861 3.29256 -0.000453777 2.90982 1.10253e-06H1.56155C0.680892 1.10253e-06 -0.0516912 0.732584 0.0028629 1.61324C0.415915 8.26884 5.73883 13.584 12.3866 13.997C13.2673 14.0516 13.9999 13.319 13.9999 12.4383V11.0901C14.0077 10.3029 13.4154 9.64048 12.6282 9.54696Z" fill="white"/>
</svg>
