<svg width="10" height="10" viewBox="0 0 10 10" fill="none" xmlns="http://www.w3.org/2000/svg">
<path d="M4.60991 0.283439C4.73269 -0.0944547 5.26731 -0.0944551 5.39009 0.283439L6.28924 3.05073C6.34415 3.21973 6.50164 3.33415 6.67934 3.33415H9.58904C9.98639 3.33415 10.1516 3.84261 9.83014 4.07616L7.47613 5.78644C7.33237 5.89089 7.27222 6.07603 7.32713 6.24502L8.22628 9.01232C8.34906 9.39021 7.91655 9.70445 7.59509 9.4709L5.24109 7.76062C5.09733 7.65617 4.90267 7.65617 4.75891 7.76062L2.40491 9.4709C2.08345 9.70445 1.65093 9.39021 1.77372 9.01232L2.67287 6.24502C2.72778 6.07603 2.66763 5.89089 2.52387 5.78644L0.169864 4.07616C-0.151591 3.84261 0.0136146 3.33415 0.410955 3.33415H3.32066C3.49836 3.33415 3.65585 3.21973 3.71076 3.05073L4.60991 0.283439Z" fill="#FCBC00"/>
</svg>
